<?xml version="1.0" encoding="iso-8859-1"?>

<!DOCTYPE svg PUBLIC "-//W3C//DTD SVG 1.1//EN" "http://www.w3.org/Graphics/SVG/1.1/DTD/svg11.dtd">
<!-- Uploaded to: SVG Repo, www.svgrepo.com, Generator: SVG Repo Mixer Tools -->
<svg version="1.1" id="_x34_" xmlns="http://www.w3.org/2000/svg" xmlns:xlink="http://www.w3.org/1999/xlink" 
	 viewBox="0 0 512 512"  xml:space="preserve">
			<g transform="matrix(0.976563, 0, 0, 0.976563, 27.777754, 8.210784)">
          <polygon style="fill:#FAFAFB;" points="505.345,55.749 512,54.819 510.023,41.087 &#9;&#9;&#9;&#9;"/>
          <g>
            <polygon style="fill:#FAFAFB;" points="63.95,59.752 0,68.429 7.51,123.307 44.875,118.238 &#9;&#9;&#9;&#9;&#9;"/>
            <polygon style="fill:#FAFAFB;" points="197.708,41.577 178.677,100.124 129.301,106.811 103.926,110.24 105.041,106.811 &#10;&#9;&#9;&#9;&#9;&#9;&#9;122.957,51.777 &#9;&#9;&#9;&#9;&#9;"/>
            <polygon style="fill:#FAFAFB;" points="465.25,5.315 463.964,9.173 446.22,63.778 403.701,69.521 371.469,73.894 390.5,15.431 &#10;&#9;&#9;&#9;&#9;&#9;&#9;&#9;&#9;&#9;&#9;&#9;"/>
            <polygon style="fill:#FAFAFB;" points="331.522,23.488 312.406,81.952 237.655,92.067 256.771,33.604 &#9;&#9;&#9;&#9;&#9;"/>
            <polygon style="fill:#45484A;" points="122.957,51.777 105.041,106.811 103.926,110.24 97.583,111.097 66.98,115.212 &#10;&#9;&#9;&#9;&#9;&#9;&#9;44.863,118.213 48.549,106.811 51.035,99.268 54.635,88.21 63.979,59.749 86.096,56.749 &#9;&#9;&#9;&#9;&#9;"/>
            <polygon style="fill:#45484A;" points="256.771,33.604 237.655,92.067 178.677,100.124 197.708,41.577 &#9;&#9;&#9;&#9;&#9;"/>
            <polygon style="fill:#45484A;" points="390.5,15.431 371.469,73.894 312.406,81.952 331.522,23.488 &#9;&#9;&#9;&#9;&#9;"/>
            <polygon style="fill:#45484A;" points="509.998,41.062 509.998,41.148 509.227,43.462 505.198,55.806 446.22,63.778 &#10;&#9;&#9;&#9;&#9;&#9;&#9;463.964,9.173 465.25,5.315 468.251,4.887 497.739,0.858 504.34,0 505.541,8.658 &#9;&#9;&#9;&#9;&#9;"/>
          </g>
        </g>
        
			
</svg>