<?xml version="1.0" encoding="utf-8"?>
<svg xmlns="http://www.w3.org/2000/svg" viewBox="0 0 500 500">
  <g transform="matrix(1, 0, 0, 1, -27.777891, 29.693392)">
    <g>
      <g>
        <path style="fill: rgb(69, 72, 74); stroke-width: 0.977;" d="M 527.246 145.167 L 527.246 427.62 C 527.246 430.299 524.985 432.392 522.306 432.392 L 35.509 432.392 C 32.83 432.392 30.57 430.299 30.57 427.62 L 30.57 145.167 L 527.246 145.167 Z"/>
        <g transform="matrix(0.976563, 0, 0, 0.976563, 27.777754, 8.210784)">
          <polygon style="fill:#FAFAFB;" points="99.676,106.815 72.847,162.205 148.261,162.205 175.091,106.815 &#9;&#9;&#9;&#9;"/>
          <polygon style="fill:#FAFAFB;" points="40.063,106.811 33.89,119.67 33.89,119.755 28.147,131.586 23.947,140.243 &#10;&#9;&#9;&#9;&#9;&#9;23.175,141.701 18.289,151.902 13.317,162.189 13.317,162.274 2.43,162.274 2.43,106.811 &#9;&#9;&#9;&#9;"/>
          <polygon style="fill:#FAFAFB;" points="234.673,106.815 207.844,162.205 283.258,162.205 310.088,106.815 &#9;&#9;&#9;&#9;"/>
          <polygon style="fill:#FAFAFB;" points="477.837,162.205 511.387,162.205 511.387,106.815 504.667,106.815 &#9;&#9;&#9;&#9;"/>
          <polygon style="fill:#FAFAFB;" points="369.67,106.815 342.841,162.205 418.255,162.205 445.084,106.815 &#9;&#9;&#9;&#9;"/>
          <polygon style="fill:#45484A;" points="40.094,106.815 13.265,162.205 72.847,162.205 99.676,106.815 &#9;&#9;&#9;&#9;"/>
          <polygon style="fill:#45484A;" points="175.091,106.815 148.261,162.205 207.844,162.205 234.673,106.815 &#9;&#9;&#9;&#9;"/>
          <polygon style="fill:#45484A;" points="310.088,106.815 283.258,162.205 342.841,162.205 369.67,106.815 &#9;&#9;&#9;&#9;"/>
          <polygon style="fill:#45484A;" points="445.084,106.815 418.255,162.205 477.837,162.205 504.667,106.815 &#9;&#9;&#9;&#9;"/>
        </g>
        <g transform="matrix(0.976563, 0, 0, 0.976563, 27.777754, 8.210784)">
          <g>
            <rect x="172.986" y="250.867" style="fill:#FFFFFF;" width="4.806" height="68.479"/>
          </g>
          <g>
            <rect x="336.526" y="250.867" style="fill:#FFFFFF;" width="4.806" height="68.479"/>
          </g>
        </g>
        <g transform="matrix(0.976563, 0, 0, 0.976563, 27.777754, 8.210784)">
          <rect x="59.871" y="331.36" style="fill:#FFFFFF;" width="394.574" height="4.806"/>
        </g>
        <g style="opacity:0.2;" transform="matrix(0.976563, 0, 0, 0.976563, 27.777754, 8.210784)">
          <rect x="59.871" y="335.965" style="fill:#FFFFFF;" width="394.574" height="4.806"/>
        </g>
        <g style="opacity:0.2;" transform="matrix(0.976563, 0, 0, 0.976563, 27.777754, 8.210784)">
          <rect x="59.871" y="378.815" style="fill:#FFFFFF;" width="394.574" height="4.806"/>
        </g>
        <g transform="matrix(0.976563, 0, 0, 0.976563, 27.777754, 8.210784)">
          <rect x="59.871" y="373.408" style="fill:#FFFFFF;" width="394.574" height="4.806"/>
        </g>
        <g transform="matrix(0.976563, 0, 0, 0.976563, 27.777754, 8.210784)">
          <polygon style="fill:#FAFAFB;" points="505.345,55.749 512,54.819 510.023,41.087 &#9;&#9;&#9;&#9;"/>
          <g>
            <polygon style="fill:#FAFAFB;" points="63.95,59.752 0,68.429 7.51,123.307 44.875,118.238 &#9;&#9;&#9;&#9;&#9;"/>
            <polygon style="fill:#FAFAFB;" points="197.708,41.577 178.677,100.124 129.301,106.811 103.926,110.24 105.041,106.811 &#10;&#9;&#9;&#9;&#9;&#9;&#9;122.957,51.777 &#9;&#9;&#9;&#9;&#9;"/>
            <polygon style="fill:#FAFAFB;" points="465.25,5.315 463.964,9.173 446.22,63.778 403.701,69.521 371.469,73.894 390.5,15.431 &#10;&#9;&#9;&#9;&#9;&#9;&#9;&#9;&#9;&#9;&#9;&#9;"/>
            <polygon style="fill:#FAFAFB;" points="331.522,23.488 312.406,81.952 237.655,92.067 256.771,33.604 &#9;&#9;&#9;&#9;&#9;"/>
            <polygon style="fill:#45484A;" points="122.957,51.777 105.041,106.811 103.926,110.24 97.583,111.097 66.98,115.212 &#10;&#9;&#9;&#9;&#9;&#9;&#9;44.863,118.213 48.549,106.811 51.035,99.268 54.635,88.21 63.979,59.749 86.096,56.749 &#9;&#9;&#9;&#9;&#9;"/>
            <polygon style="fill:#45484A;" points="256.771,33.604 237.655,92.067 178.677,100.124 197.708,41.577 &#9;&#9;&#9;&#9;&#9;"/>
            <polygon style="fill:#45484A;" points="390.5,15.431 371.469,73.894 312.406,81.952 331.522,23.488 &#9;&#9;&#9;&#9;&#9;"/>
            <polygon style="fill:#45484A;" points="509.998,41.062 509.998,41.148 509.227,43.462 505.198,55.806 446.22,63.778 &#10;&#9;&#9;&#9;&#9;&#9;&#9;463.964,9.173 465.25,5.315 468.251,4.887 497.739,0.858 504.34,0 505.541,8.658 &#9;&#9;&#9;&#9;&#9;"/>
          </g>
        </g>
        <path style="fill: rgb(79, 84, 92); stroke-width: 0.977;" d="M 101.027 157.428 L 49.888 157.428 C 43.284 157.428 37.929 152.073 37.929 145.469 L 37.929 94.33 C 37.929 83.676 50.811 78.34 58.345 85.873 L 109.484 137.012 C 117.017 144.546 111.681 157.428 101.027 157.428 Z"/>
        <circle style="fill: rgb(250, 250, 251); stroke-width: 0.977;" cx="54.251" cy="103.326" r="5.73"/>
        <circle style="fill: rgb(250, 250, 251); stroke-width: 0.977;" cx="54.251" cy="142.369" r="5.73"/>
        <circle style="fill: rgb(250, 250, 251); stroke-width: 0.977;" cx="91.326" cy="142.369" r="5.73"/>
        <text style="fill: rgb(211, 210, 211); font-family: Arial, sans-serif; font-size: 47.4px; font-weight: 700; white-space: pre;" x="61.941" y="234.156">STORYBOARD AI</text>
      </g>
      <rect x="30.57" y="166.682" style="opacity: 0.2; fill: rgb(29, 30, 30); stroke-width: 0.977;" width="496.677" height="9.209"/>
    </g>
    <g transform="matrix(0.976563, 0, 0, 0.976563, 27.476349, 8.210784)">
      <polygon style="opacity:0.2;fill:#1D1E1E;" points="509.998,41.062 509.998,41.148 509.227,43.462 505.198,55.806 446.22,63.778 &#10;&#9;&#9;&#9;403.615,69.607 403.701,69.521 463.964,9.173 468.251,4.887 497.739,0.858 504.34,0 505.541,8.658 &#9;&#9;"/>
      <path style="opacity:0.2;fill:#1D1E1E;" d="M511.386,106.815h-6.72h-59.583H369.67h-3.3L38.813,434.372h467.619 c2.741,0,4.999-2.177,4.999-4.918V171.673v-9.433v-22.012h-0.044V106.815z"/>
      <polygon style="opacity:0.2;fill:#1D1E1E;" points="512,54.819 510.023,41.087 505.345,55.75 &#9;&#9;"/>
    </g>
  </g>
</svg>